:SAMPLES-PER-SECOND 30
:FULLY-SPECIFIED
:DEGREES
74
root  34.72952355 36.49847676 -14.95386709 8.305386543 -6.436225891 4.011697769
lowerback  -7.242860317 -1.726340055 -1.371960163
upperback  -4.567639828 -1.72724998 -3.491329908
thorax  -0.7229009867 -0.6696974635 -2.945090055
lowerneck  -1.238749981 -17.50289917 -13.33479977
upperneck  11.88720036 -24.49829865 13.48289967
head  7.156939983 -11.67150021 4.077129841
lclavicle  0 -4.497500157e-015 -2.743230041e-014
lhumerus  -50.48199844 29.82830048 61.64490128
lradius  0.001595117152 -6.507048965e-006 30.42709923
lwrist  4.824992743e-007 -3.790274832e-007 -28.79750061
lhand  -4.415889985e-031 -36.90420151 -10.68029976
lfingers  90 7.125020027 -90
lthumb  94.81915335 -25.51588605 101.0739958
rclavicle  0 -4.497500157e-015 -2.743230041e-014
rhumerus  -56.27560043 -31.75429726 -2.226620436
rradius  -5.16745672e-007 2.214343908e-008 107.3190002
rwrist  -0.0001011603963 -0.001600692281 175.4120331
rhand  -1.76701974e-031 2.327069998 -7.994709969
rfingers  -90 -7.125020027 -90
rthumb  -85.75183725 -7.991852792 -61.88580688
rfemur  -12.99641132 16.5881691 12.6936245
rtibia  -1.661651492 -1.382771254 21.88168335
rfoot  -0.06923425943 -22.55557442 -35.54047394
rtoes  4.163994598 19.57911119 -102.2572719
lfemur  -8.124040604 -17.12943268 -20.82406235
ltibia  2.543702602 -1.683036089 14.99013329
lfoot  1.012388587 -22.28091431 38.34399414
ltoes  -8.567530048 -18.14029234 -115.8218057
75
root  34.72793159 36.49545504 -14.95349764 8.298913956 -6.418266773 4.017627716
lowerback  -7.244515419 -1.736150026 -1.408609629
upperback  -4.58134985 -1.735759974 -3.493099928
thorax  -0.7318639755 -0.6700932384 -2.926970005
lowerneck  -1.157330036 -17.55649948 -13.30360031
upperneck  11.79559994 -24.57029915 13.46420002
head  7.117070198 -11.71360016 4.066800117
lclavicle  0 -4.497500157e-015 -2.743230041e-014
lhumerus  -50.47539902 29.74090004 61.72000122
lradius  0.001595117152 -6.507048965e-006 30.46159935
lwrist  4.824992743e-007 -3.790274832e-007 -28.66109848
lhand  -4.415334415e-031 -36.89459991 -10.69569969
lfingers  90 7.125020027 -90
lthumb  94.81795781 -25.53138087 101.0651898
rclavicle  0 -4.497500157e-015 -2.743230041e-014
rhumerus  -55.74079895 -32.02050018 -1.463409662
rradius  -5.16745672e-007 2.214343908e-008 106.9160004
rwrist  -0.0001011603963 -0.001600692281 175.7319946
rhand  -1.766973208e-031 2.28963995 -7.897699833
rfingers  -90 -7.125020027 -90
rthumb  -85.71348002 -8.074961342 -61.91569796
rfemur  -12.97725201 16.59896469 12.69109058
rtibia  -1.662037849 -1.397380352 21.87127495
rfoot  -0.07888618112 -22.58535385 -35.5770607
rtoes  4.139797998 19.58404893 -102.1850753
lfemur  -8.08758831 -17.08190346 -20.84402657
ltibia  2.578537226 -1.660566449 14.95248604
lfoot  1.038588524 -22.31715965 38.3494606
ltoes  -8.547081499 -18.14968136 -115.756144
76
root  34.72700645 36.49479723 -14.95271668 8.305314064 -6.41397953 4.024508476
lowerback  -7.247591972 -1.742585063 -1.41460979
upperback  -4.583799839 -1.737120032 -3.505660057
thorax  -0.7365249991 -0.6709935665 -2.93618989
lowerneck  -1.080049992 -17.61090088 -13.35249996
upperneck  11.7116003 -24.65410233 13.53919983
head  7.104939938 -11.75769997 4.090129852
lclavicle  0 -4.497500157e-015 -2.743230041e-014
lhumerus  -50.44829941 29.68260002 61.77140045
lradius  0.001595117152 -6.507048965e-006 30.46619987
lwrist  4.824992743e-007 -3.790274832e-007 -28.53039932
lhand  -4.418073762e-031 -36.94189835 -10.58399963
lfingers  90 7.125020027 -90
lthumb  94.81628686 -25.42009557 101.1054926
rclavicle  0 -4.497500157e-015 -2.743230041e-014
rhumerus  -55.15069962 -32.39139938 -0.7086702585
rradius  -5.16745672e-007 2.214343908e-008 106.387001
rwrist  -0.0001011603963 -0.001600692281 175.8829956
rhand  -1.767278639e-031 2.525190115 -8.21088028
rfingers  -90 -7.125020027 -90
rthumb  -85.81407826 -7.814535013 -61.70727191
rfemur  -12.97451115 16.61500359 12.69290829
rtibia  -1.666981339 -1.406417966 21.86601448
rfoot  -0.0800427869 -22.59605026 -35.59756088
rtoes  4.13326857 19.5853762 -102.1655961
lfemur  -8.074291229 -17.07924461 -20.85708809
ltibia  2.607455492 -1.645639777 14.93183136
lfoot  1.066045761 -22.34349251 38.37563324
ltoes  -8.534047592 -18.15565134 -115.7143083
77
root  34.72584702 36.49513064 -14.95088893 8.310420036 -6.401469707 4.028329372
lowerback  -7.249379635 -1.749379873 -1.460919738
upperback  -4.57942009 -1.748430014 -3.507849932
thorax  -0.7300180197 -0.6726593971 -2.91369009
lowerneck  -1.044109941 -17.67370033 -13.40820026
upperneck  11.65680027 -24.74939728 13.61380005
head  7.111639977 -11.80440044 4.107409954
lclavicle  0 -4.497500157e-015 -2.743230041e-014
lhumerus  -50.43529892 29.69280052 61.77119827
lradius  0.001595117152 -6.507048965e-006 30.47167397
lwrist  4.824992743e-007 -3.790274832e-007 -28.5557003
lhand  -4.41882207e-031 -36.95479965 -10.59980011
lfingers  90 7.125020027 -90
lthumb  94.82563991 -25.43504802 101.1206674
rclavicle  0 -4.497500157e-015 -2.743230041e-014
rhumerus  -54.53179932 -32.68220139 -0.1205247492
rradius  -5.16745672e-007 2.214343908e-008 105.9889984
rwrist  -0.0001011603963 -0.001600692281 176.4609985
rhand  -3.535098273e-031 2.716749907 -8.05976963
rfingers  -90 -7.125020027 -90
rthumb  -85.70183371 -7.960304467 -61.51090001
rfemur  -12.96729279 16.60311127 12.69134712
rtibia  -1.667997479 -1.404430509 21.85299873
rfoot  -0.07749620825 -22.57823372 -35.59943008
rtoes  4.135504555 19.58492193 -102.1722665
lfemur  -8.098212242 -17.0995636 -20.86211967
ltibia  2.601893663 -1.661618829 14.97038937
lfoot  1.059074283 -22.33588028 38.3251152
ltoes  -8.548507898 -18.14902733 -115.7607232
78
root  34.725021 36.49769881 -14.94929847 8.354043007 -6.396849155 4.047703266
lowerback  -7.188180447 -1.737120152 -1.425260067
upperback  -4.58409977 -1.735890031 -3.541110039
thorax  -0.7704979777 -0.6753519773 -2.965820074
lowerneck  -0.947247982 -17.7451992 -13.44639969
upperneck  11.57349968 -24.86050034 13.70269966
head  7.101069927 -11.8604002 4.131030083
lclavicle  0 -4.497500157e-015 -2.743230041e-014
lhumerus  -50.41450119 29.62240028 61.78580093
lradius  0.001595117152 -6.507048965e-006 30.47268677
lwrist  4.824992743e-007 -3.790274832e-007 -28.5067997
lhand  -4.417146452e-031 -36.92589951 -10.65839958
lfingers  90 7.125020027 -90
lthumb  94.82462761 -25.49362004 101.0951321
rclavicle  0 -4.497500157e-015 -2.743230041e-014
rhumerus  -54.15149689 -33.03419876 0.6412152052
rradius  -5.16745672e-007 2.214343908e-008 105.5
rwrist  -0.0001011603963 -0.001600692281 176.5090027
rhand  -1.767719639e-031 2.830820084 -7.771259785
rfingers  -90 -7.125020027 -90
rthumb  -85.53835829 -8.22128555 -61.38029063
rfemur  -13.02850056 16.55579185 12.66574574
rtibia  -1.679597497 -1.42097342 21.88038635
rfoot  -0.07353445888 -22.57964706 -35.54545975
rtoes  4.154345328 19.58108392 -102.2284788
lfemur  -8.183942795 -17.06875801 -20.85811615
ltibia  2.5925982 -1.676889539 15.01638985
lfoot  1.060206294 -22.3223381 38.26512909
ltoes  -8.537614544 -18.15401868 -115.7257561
79
root  34.72457045 36.49993356 -14.94814655 8.389115334 -6.398030281 4.065226078
lowerback  -7.174660206 -1.745300055 -1.443869829
upperback  -4.569369793 -1.746899962 -3.546370029
thorax  -0.7627379894 -0.6810110211 -2.961270094
lowerneck  -0.871645987 -17.79500008 -13.42730045
upperneck  11.44880009 -24.93140221 13.74359989
head  7.06125021 -11.89970016 4.140079975
lclavicle  0 -4.497500157e-015 -2.743230041e-014
lhumerus  -50.39730072 29.62549973 61.79219818
lradius  0.001595117152 -6.507048965e-006 30.47241783
lwrist  4.824992743e-007 -3.790274832e-007 -28.45969963
lhand  -0 -36.93180084 -10.66819954
lfingers  90 7.125020027 -90
lthumb  94.82949047 -25.50305286 101.1023513
rclavicle  0 -4.497500157e-015 -2.743230041e-014
rhumerus  -53.49739838 -33.32170105 1.225900054
rradius  -5.16745672e-007 2.214343908e-008 104.9420013
rwrist  -0.0001011603963 -0.001600692281 176.796936
rhand  -1.767803804e-031 2.8854599 -7.839839935
rfingers  -90 -7.125020027 -90
rthumb  -85.55987456 -8.164666812 -61.33184513
rfemur  -13.08482361 16.50562859 12.63985538
rtibia  -1.689148903 -1.440563917 21.90775108
rfoot  -0.07044555992 -22.5920887 -35.49855423
rtoes  4.155870898 19.58077234 -102.2330308
lfemur  -8.216333389 -17.02230453 -20.86660957
ltibia  2.615680218 -1.655315876 15.00118923
lfoot  1.093164206 -22.3608284 38.28421402
ltoes  -8.54552519 -18.1503948 -115.7511479
80
root  34.72423103 36.50117409 -14.94813003 8.414136887 -6.399285316 4.067899227
lowerback  -7.122499943 -1.754199982 -1.466930151
upperback  -4.588079929 -1.757550001 -3.565320015
thorax  -0.8112869859 -0.6851220131 -2.967129946
lowerneck  -0.7743930221 -17.84630013 -13.44340038
upperneck  11.3501997 -25.00970078 13.80490017
head  7.034669876 -11.94209957 4.159090042
lclavicle  0 -4.497500157e-015 -2.743230041e-014
lhumerus  -50.45880127 29.72240067 61.70209885
lradius  0.001595117152 -6.507048965e-006 30.47275925
lwrist  4.824992743e-007 -3.790274832e-007 -28.56189919
lhand  -0 -36.97650146 -10.65530014
lfingers  90 7.125020027 -90
lthumb  94.84770975 -25.48881061 101.1490482
rclavicle  0 -4.497500157e-015 -2.743230041e-014
rhumerus  -52.94459915 -33.56700134 1.869197011
rradius  -5.16745672e-007 2.214343908e-008 104.3700027
rwrist  -0.0001011603963 -0.001600692281 176.7539978
rhand  -1.768154169e-031 3.10255003 -7.731339931
rfingers  -90 -7.125020027 -90
rthumb  -85.46040512 -8.273855007 -61.11298556
rfemur  -13.11587143 16.46442032 12.62669373
rtibia  -1.689481616 -1.463008881 21.91217804
rfoot  -0.06877612323 -22.6283474 -35.45949936
rtoes  4.173678213 19.5771266 -102.2861703
lfemur  -8.225725174 -16.98452187 -20.86862373
ltibia  2.637267828 -1.612803817 14.98328209
lfoot  1.141364455 -22.44870377 38.34577942
ltoes  -8.554406996 -18.14632105 -115.7796629
